<?xml version="1.0" encoding="UTF-8"?>
<svg width="20px" height="20px" viewBox="0 0 20 20" version="1.1" xmlns="http://www.w3.org/2000/svg" xmlns:xlink="http://www.w3.org/1999/xlink">
    <!-- Generator: Sketch 46.2 (44496) - http://www.bohemiancoding.com/sketch -->
    <title>call-icon</title>
    <desc>Created with Sketch.</desc>
    <defs></defs>
    <g id="Assets" stroke="none" stroke-width="1" fill="none" fill-rule="evenodd">
        <g id="call-icon" fill="#FFFFFF" fill-rule="nonzero">
            <path d="M16.9841248,13.9205351 C15.8183178,12.8870298 14.6319029,12.2590006 13.4808155,13.2925051 L12.7919299,13.9144373 C12.2885131,14.3686923 11.3523351,16.4844811 7.7342113,12.1705881 C4.11608823,7.86584127 6.26812105,7.19513002 6.77448167,6.74697354 L7.46631177,6.12199201 C8.61151088,5.08848753 8.178749,3.78669776 7.35149725,2.44527525 L6.8539687,1.63432398 C6.02377242,0.298999239 5.11703364,-0.579022767 3.96889076,0.451433225 L3.34771562,1.015441 C2.83841124,1.39652675 1.41942355,2.64343975 1.07498076,5.00922126 C0.659882999,7.84754954 1.96994371,11.1004993 4.96394787,14.6674633 C7.95500827,18.2374766 10.8871895,20.0301049 13.6603975,19.9996176 C15.9655153,19.9721796 17.3609513,18.6917309 17.796657,18.2252819 L18.4178321,17.6612749 C19.565975,16.6308181 18.8535378,15.5790211 17.6847862,14.5455158 L16.9841248,13.9205351 Z"></path>
        </g>
    </g>
</svg>